<svg width="124" height="40" viewBox="0 0 124 40" fill="none" xmlns="http://www.w3.org/2000/svg">
<path fill-rule="evenodd" clip-rule="evenodd" d="M17.6036 2.054H2.054V17.6036H17.6036V2.054ZM0 0V19.6576H19.6576V0H0Z" fill="#AD31F4"/>
<path fill-rule="evenodd" clip-rule="evenodd" d="M27.965 27.2519L29.9719 27.2557L29.9823 21.8676C29.9852 20.3824 29.181 19.4328 27.5058 19.4297C27.0015 19.4218 26.5015 19.5231 26.0401 19.7268C25.5786 19.9305 25.1668 20.2316 24.8328 20.6096L24.8347 19.6139L22.8278 19.6101L22.8132 27.2431L24.8201 27.2469L24.8299 22.1106C25.0297 21.8354 25.2911 21.6108 25.5933 21.455C25.8956 21.2991 26.2301 21.2163 26.5702 21.2132C27.4234 21.2151 27.976 21.5794 27.9738 22.638L27.965 27.2519ZM36.7985 27.269L38.8054 27.2731L38.8202 19.6411L36.8133 19.6373L36.8032 24.8042C36.5964 25.0696 36.3327 25.2851 36.0315 25.4349C35.7303 25.5847 35.3993 25.6649 35.063 25.6697C34.2098 25.6697 33.6571 25.3196 33.6593 24.2607L33.6682 19.6313L31.6612 19.6272L31.6508 25.0469C31.648 26.5321 32.4364 27.4504 34.1115 27.4535C34.6153 27.4627 35.1154 27.3651 35.5788 27.1672C36.0423 26.9693 36.4586 26.6755 36.8004 26.3052L36.7985 27.269ZM40.4802 27.2763L42.4871 27.2801L42.489 26.3005C42.7644 26.6639 43.1199 26.959 43.528 27.1626C43.936 27.3662 44.3856 27.4729 44.8416 27.4744C46.7692 27.4782 48.2263 26.0271 48.231 23.4833C48.2361 20.9869 46.8008 19.4669 44.8571 19.4632C44.4008 19.4611 43.9502 19.5653 43.5412 19.7675C43.1321 19.9696 42.7756 20.2642 42.5 20.6279L42.5076 16.7411L40.5007 16.7373L40.4802 27.2763ZM42.4918 24.831L42.4972 22.1289C42.6991 21.861 42.9591 21.6425 43.2578 21.4898C43.5565 21.3372 43.8859 21.2543 44.2213 21.2476C45.3905 21.2498 46.1634 22.152 46.1609 23.4792C46.1584 24.8064 45.3823 25.6912 44.2128 25.6877C43.8802 25.682 43.5532 25.6021 43.2555 25.4539C42.9577 25.3057 42.6968 25.0929 42.4918 24.831ZM49.4242 27.2936L51.4312 27.2974L51.4517 16.7582L49.4448 16.7544L49.4242 27.2936ZM56.6458 27.4971C59.1738 27.5022 60.695 25.6723 60.6991 23.4915C60.7036 21.3269 59.1899 19.491 56.6613 19.4862C54.1488 19.4812 52.6279 21.3111 52.6237 23.4761C52.6196 25.6565 54.133 27.4924 56.6458 27.4959V27.4971ZM56.6493 25.7118C55.4008 25.7092 54.7075 24.681 54.7097 23.4802C54.7122 22.2948 55.4093 21.2682 56.6578 21.2716C57.9063 21.2751 58.617 22.3024 58.6132 23.4877C58.6104 24.6885 57.8978 25.7143 56.6493 25.7118ZM61.3782 23.4928C61.3738 25.8473 63.0616 27.5098 65.4161 27.5142C66.9806 27.5174 67.9302 26.8396 68.4374 26.1295L67.1278 24.9104C66.9465 25.1685 66.7046 25.3782 66.4232 25.5209C66.1419 25.6636 65.8298 25.735 65.5143 25.7288C64.2974 25.7266 63.4458 24.8241 63.4487 23.4969C63.4515 22.1697 64.3063 21.2849 65.5229 21.2887C65.8397 21.2768 66.1542 21.3464 66.4364 21.4908C66.7186 21.6353 66.9589 21.8498 67.1345 22.1138L68.4484 20.8836C67.9428 20.1884 66.997 19.5061 65.4325 19.5033C63.077 19.4985 61.3826 21.1544 61.3782 23.4928ZM74.3766 27.342L76.8894 27.3467L73.7841 23.1695L76.8091 19.7147L74.3443 19.71L71.4457 23.1016L71.458 16.7971L69.4508 16.7933L69.4305 27.3325L71.4375 27.3363L71.4412 25.3771L72.3599 24.3975L74.3766 27.342ZM80.9415 23.531C80.9371 25.8536 82.5616 27.5474 84.8845 27.5521C86.3697 27.555 87.2722 26.9246 87.811 26.1987L86.7224 25.1853C86.5271 25.4688 86.2644 25.6992 85.9579 25.8559C85.6515 26.0125 85.3108 26.0905 84.9667 26.0827C83.5763 26.0799 82.6599 25.0194 82.6643 23.5342C82.6687 22.049 83.5858 21.0062 84.9765 21.0106C85.3212 21.0006 85.6628 21.0783 85.9693 21.2364C86.2758 21.3946 86.5371 21.6279 86.7287 21.9147L87.8211 20.9054C87.2839 20.1786 86.3858 19.5437 84.9003 19.5409C82.5771 19.5365 80.9462 21.2239 80.9415 23.531ZM93.608 27.3793L95.2673 27.3824L95.2772 22.3264C95.2813 20.2724 93.797 19.5586 92.1061 19.5551C90.9165 19.5274 89.7637 19.9678 88.8955 20.7815L89.573 21.9362C89.8656 21.6318 90.2169 21.3898 90.6056 21.225C90.9943 21.0601 91.4124 20.9756 91.8346 20.9768C92.8936 20.9787 93.6194 21.5175 93.6178 22.4023L93.6156 23.5399C93.0636 22.8911 92.1794 22.5574 91.1508 22.5555C89.9023 22.553 88.4945 23.2773 88.491 25.0311C88.4879 26.722 89.8925 27.5619 91.141 27.5645C91.6003 27.5823 92.058 27.5017 92.4836 27.3281C92.9091 27.1545 93.2926 26.892 93.6084 26.558L93.608 27.3793ZM93.6115 25.6413C93.3892 25.9034 93.1095 26.1107 92.794 26.2471C92.4785 26.3836 92.1359 26.4454 91.7926 26.4278C90.8601 26.4259 90.1658 25.8875 90.1674 25.0659C90.1674 24.2281 90.8655 23.6925 91.7977 23.6941C92.141 23.6778 92.4835 23.741 92.7985 23.8787C93.1135 24.0163 93.3925 24.2248 93.6137 24.4879L93.6115 25.6413ZM98.7538 30.2966L98.7614 26.3308C99.0398 26.7197 99.4072 27.0363 99.8329 27.2542C100.259 27.4722 100.73 27.5852 101.208 27.5837C103.184 27.5875 104.593 26.089 104.598 23.5768C104.603 21.0646 103.2 19.5763 101.224 19.5725C100.748 19.5713 100.278 19.6817 99.8521 19.8949C99.4263 20.1081 99.0564 20.4181 98.7721 20.8002L98.7743 19.7574L97.115 19.7542L97.0945 30.2934L98.7538 30.2966ZM102.876 23.5734C102.873 25.0586 102.033 26.1159 100.722 26.1134C100.338 26.1016 99.9628 26.0026 99.6236 25.824C99.2844 25.6453 98.9904 25.3916 98.7639 25.0823L98.7699 22.0645C98.9951 21.7535 99.2896 21.4992 99.63 21.3216C99.9704 21.1441 100.347 21.0481 100.731 21.0413C102.043 21.0438 102.879 22.104 102.876 23.5734ZM106.788 18.5088C106.992 18.5092 107.19 18.4493 107.359 18.3368C107.528 18.2243 107.66 18.0641 107.738 17.8766C107.816 17.6891 107.837 17.4826 107.798 17.2833C107.759 17.0841 107.661 16.9009 107.518 16.757C107.374 16.6131 107.192 16.5149 106.993 16.4749C106.793 16.4349 106.587 16.4549 106.399 16.5323C106.211 16.6097 106.051 16.741 105.937 16.9097C105.824 17.0784 105.764 17.2768 105.763 17.4799C105.763 17.6149 105.789 17.7486 105.84 17.8734C105.892 17.9982 105.967 18.1117 106.062 18.2073C106.157 18.3028 106.271 18.3787 106.395 18.4304C106.52 18.4822 106.653 18.5088 106.788 18.5088ZM105.949 27.4033L107.609 27.4065L107.624 19.7747L105.964 19.7713L105.949 27.4033ZM111.732 27.604C112.297 27.6506 112.859 27.4761 113.298 27.1173L112.905 25.8682C112.7 26.0488 112.434 26.1444 112.162 26.1355C111.688 26.1355 111.435 25.7547 111.436 25.2333L111.444 21.2356L112.993 21.2388L112.996 19.7852L111.447 19.782L111.451 17.6964L109.792 17.6933L109.788 19.7788L108.524 19.7763L108.521 21.2299L109.785 21.2324L109.777 25.641C109.775 26.905 110.453 27.6017 111.733 27.604H111.732ZM118.828 27.4283L120.487 27.4314L120.497 22.3754C120.501 20.3214 119.017 19.6076 117.326 19.6041C116.137 19.5764 114.984 20.0168 114.116 20.8305L114.793 21.9852C115.086 21.6808 115.437 21.4388 115.826 21.2739C116.214 21.109 116.632 21.0246 117.055 21.0258C118.114 21.0277 118.839 21.5664 118.837 22.4513L118.836 23.5889C118.284 22.9401 117.399 22.6064 116.371 22.6045C115.122 22.602 113.715 23.3263 113.711 25.0801C113.708 26.7707 115.112 27.6109 116.361 27.6134C116.82 27.6313 117.278 27.5507 117.704 27.3771C118.129 27.2035 118.513 26.9409 118.828 26.607L118.828 27.4283ZM118.831 25.6903C118.609 25.9523 118.329 26.1596 118.014 26.296C117.698 26.4324 117.356 26.4943 117.013 26.4768C116.08 26.4749 115.386 25.9361 115.387 25.1145C115.387 24.2771 116.085 23.7412 117.018 23.7431C117.361 23.7268 117.703 23.7899 118.018 23.9275C118.333 24.0652 118.612 24.2736 118.834 24.5365L118.831 25.6903ZM122.32 27.4349L123.979 27.4384L124 16.8991L122.34 16.8957L122.32 27.4349Z" fill="#F0F0F0"/>
<path fill-rule="evenodd" clip-rule="evenodd" d="M9.3875 37.1805L9.3875 9.57089L29.539 9.57089L36.9971 16.9656L36.9971 17.9224L39.0511 17.9224L39.0511 16.1097L30.3846 7.51689L7.3335 7.51689L7.3335 39.2345L39.0511 39.2345L39.0511 28.8154L36.9971 28.8154L36.9971 37.1805L9.3875 37.1805Z" fill="#F0F0F0"/>
</svg>
